# xmcd
#
# Track frame offsets:
#	150
#	20296
#	38356
#	65812
#	88068
#	105950
#	123756
#	145361
#	169890
#	190879
#	208357
#	234088
#	258109
#
# Disc length: 3749 seconds
#
# Revision: 15
# Processed by: cddbd v1.5.2PL0 Copyright (c) Steve Scherf et al.
# Submitted via: Jack! The Knife 20 Magnifico
#
DISCID=a80ea30d
DTITLE=Judas Priest - Redeemer Of Souls
DYEAR=2014
DGENRE=Metal
TTITLE0=Dragonaut
TTITLE1=Redeemer Of Souls
TTITLE2=Halls Of Valhalla
TTITLE3=Sword Of Damocles
TTITLE4=March Of The Damned
TTITLE5=Down In Flames
TTITLE6=Hell and Back
TTITLE7=Cold Blooded
TTITLE8=Metalizer
TTITLE9=Crossfire
TTITLE10=Secrets Of The Dead
TTITLE11=Battle Cry
TTITLE12=Beginning Of The End
EXTD=Mike Exeter and Glenn Tipton
EXTT0=Tipton, Halford, Faulkner
EXTT1=Tipton, Halford, Faulkner
EXTT2=Tipton, Halford, Faulkner
EXTT3=Tipton, Halford, Faulkner
EXTT4=Tipton, Halford, Faulkner
EXTT5=Tipton, Halford, Faulkner
EXTT6=Tipton, Halford, Faulkner
EXTT7=Tipton, Halford, Faulkner
EXTT8=Tipton, Halford, Faulkner
EXTT9=Tipton, Halford, Faulkner
EXTT10=Tipton, Halford, Faulkner
EXTT11=Tipton, Halford, Faulkner
EXTT12=Tipton, Halford, Faulkner
PLAYORDER=
